<svg width="672" height="478" viewBox="0 0 672 478" fill="none" xmlns="http://www.w3.org/2000/svg">
<mask id="path-1-inside-1_1737_1928" fill="white">
<path fill-rule="evenodd" clip-rule="evenodd" d="M0.59375 43.75V444.75L33.5938 477.75H383.594H638.594L671.594 444.75V324.75V238.75V43.75L630.578 0.75H383.594H218.255H217.609H33.5938L0.59375 43.75Z"/>
</mask>
<path fill-rule="evenodd" clip-rule="evenodd" d="M0.59375 43.75V444.75L33.5938 477.75H383.594H638.594L671.594 444.75V324.75V238.75V43.75L630.578 0.75H383.594H218.255H217.609H33.5938L0.59375 43.75Z" fill="#092D5D" fill-opacity="0.3"/>
<path d="M0.59375 444.75H-0.40625V445.164L-0.113357 445.457L0.59375 444.75ZM0.59375 43.75L-0.199559 43.1412L-0.40625 43.4105V43.75H0.59375ZM33.5938 477.75L32.8866 478.457L33.1795 478.75H33.5938V477.75ZM638.594 477.75V478.75H639.008L639.301 478.457L638.594 477.75ZM671.594 444.75L672.301 445.457L672.594 445.164V444.75H671.594ZM671.594 43.75H672.594V43.3496L672.317 43.0598L671.594 43.75ZM630.578 0.75L631.302 0.0597891L631.006 -0.25H630.578V0.75ZM33.5938 0.75V-0.25H33.1007L32.8004 0.141181L33.5938 0.75ZM1.59375 444.75V43.75H-0.40625V444.75H1.59375ZM34.3009 477.043L1.30086 444.043L-0.113357 445.457L32.8866 478.457L34.3009 477.043ZM383.594 476.75H33.5938V478.75H383.594V476.75ZM638.594 476.75H383.594V478.75H638.594V476.75ZM670.887 444.043L637.887 477.043L639.301 478.457L672.301 445.457L670.887 444.043ZM670.594 324.75V444.75H672.594V324.75H670.594ZM670.594 238.75V324.75H672.594V238.75H670.594ZM670.594 43.75V238.75H672.594V43.75H670.594ZM629.855 1.44021L670.87 44.4402L672.317 43.0598L631.302 0.0597891L629.855 1.44021ZM383.594 1.75H630.578V-0.25H383.594V1.75ZM218.255 1.75H383.594V-0.25H218.255V1.75ZM217.609 1.75H218.255V-0.25H217.609V1.75ZM33.5938 1.75H217.609V-0.25H33.5938V1.75ZM1.38706 44.3588L34.3871 1.35882L32.8004 0.141181L-0.199559 43.1412L1.38706 44.3588Z" fill="#012640" mask="url(#path-1-inside-1_1737_1928)"/>
<g clip-path="url(#clip0_1737_1928)">
<path d="M221.609 9.25H625.383L662.094 46.9532V242.75V328.75V386.75V444.25H564.594H358.836H317.594H37.5938H9.09375V46.9213L38.3386 9.25H180.571H221.609Z" fill="#021017" stroke="#012640"/>
<line x1="9.59375" y1="336.25" x2="661.594" y2="336.25" stroke="#031620"/>
<line x1="9.59375" y1="352.25" x2="661.594" y2="352.25" stroke="#031620"/>
<line x1="9.59375" y1="368.25" x2="661.594" y2="368.25" stroke="#031620"/>
<line x1="9.59375" y1="384.25" x2="661.594" y2="384.25" stroke="#031620"/>
<line x1="9.59375" y1="344.25" x2="661.594" y2="344.25" stroke="#031620"/>
<line x1="9.59375" y1="360.25" x2="661.594" y2="360.25" stroke="#031620"/>
<line x1="9.59375" y1="376.25" x2="661.594" y2="376.25" stroke="#031620"/>
<line x1="9.59375" y1="392.25" x2="661.594" y2="392.25" stroke="#031620"/>
<line x1="9.59375" y1="408.25" x2="661.594" y2="408.25" stroke="#031620"/>
<line x1="9.59375" y1="424.25" x2="661.594" y2="424.25" stroke="#031620"/>
<line x1="9.59375" y1="440.25" x2="661.594" y2="440.25" stroke="#031620"/>
<line x1="9.59375" y1="400.25" x2="661.594" y2="400.25" stroke="#031620"/>
<line x1="9.59375" y1="416.25" x2="661.594" y2="416.25" stroke="#031620"/>
<line x1="9.59375" y1="432.25" x2="661.594" y2="432.25" stroke="#031620"/>
<line x1="9.59375" y1="272.25" x2="661.594" y2="272.25" stroke="#031620"/>
<line x1="9.59375" y1="288.25" x2="661.594" y2="288.25" stroke="#031620"/>
<line x1="9.59375" y1="304.25" x2="661.594" y2="304.25" stroke="#031620"/>
<line x1="9.59375" y1="320.25" x2="661.594" y2="320.25" stroke="#031620"/>
<line x1="9.59375" y1="280.25" x2="661.594" y2="280.25" stroke="#031620"/>
<line x1="9.59375" y1="296.25" x2="661.594" y2="296.25" stroke="#031620"/>
<line x1="9.59375" y1="312.25" x2="661.594" y2="312.25" stroke="#031620"/>
<line x1="9.59375" y1="328.25" x2="661.594" y2="328.25" stroke="#031620"/>
<line x1="9.59375" y1="208.25" x2="661.594" y2="208.25" stroke="#031620"/>
<line x1="9.59375" y1="224.25" x2="661.594" y2="224.25" stroke="#031620"/>
<line x1="9.59375" y1="240.25" x2="661.594" y2="240.25" stroke="#031620"/>
<line x1="9.59375" y1="256.25" x2="661.594" y2="256.25" stroke="#031620"/>
<line x1="9.59375" y1="216.25" x2="661.594" y2="216.25" stroke="#031620"/>
<line x1="9.59375" y1="232.25" x2="661.594" y2="232.25" stroke="#031620"/>
<line x1="9.59375" y1="248.25" x2="661.594" y2="248.25" stroke="#031620"/>
<line x1="9.59375" y1="264.25" x2="661.594" y2="264.25" stroke="#031620"/>
<line x1="9.59375" y1="144.25" x2="661.594" y2="144.25" stroke="#031620"/>
<line x1="9.59375" y1="160.25" x2="661.594" y2="160.25" stroke="#031620"/>
<line x1="9.59375" y1="176.25" x2="661.594" y2="176.25" stroke="#031620"/>
<line x1="9.59375" y1="192.25" x2="661.594" y2="192.25" stroke="#031620"/>
<line x1="9.59375" y1="152.25" x2="661.594" y2="152.25" stroke="#031620"/>
<line x1="9.59375" y1="168.25" x2="661.594" y2="168.25" stroke="#031620"/>
<line x1="9.59375" y1="184.25" x2="661.594" y2="184.25" stroke="#031620"/>
<line x1="9.59375" y1="200.25" x2="661.594" y2="200.25" stroke="#031620"/>
<line x1="11.5938" y1="80.25" x2="661.594" y2="80.25" stroke="#031620"/>
<line x1="9.59375" y1="96.25" x2="661.594" y2="96.25" stroke="#031620"/>
<line x1="9.59375" y1="112.25" x2="661.594" y2="112.25" stroke="#031620"/>
<line x1="9.59375" y1="128.25" x2="661.594" y2="128.25" stroke="#031620"/>
<line x1="9.59375" y1="88.25" x2="661.594" y2="88.25" stroke="#031620"/>
<line x1="9.59375" y1="104.25" x2="661.594" y2="104.25" stroke="#031620"/>
<line x1="9.59375" y1="120.25" x2="661.594" y2="120.25" stroke="#031620"/>
<line x1="9.59375" y1="136.25" x2="661.594" y2="136.25" stroke="#031620"/>
<line x1="216.594" y1="16.25" x2="630.594" y2="16.25" stroke="#031620"/>
<line x1="201.594" y1="32.25" x2="646.594" y2="32.25" stroke="#031620"/>
<line x1="186.594" y1="48.25" x2="661.594" y2="48.25" stroke="#031620"/>
<line x1="27.5938" y1="64.25" x2="661.594" y2="64.25" stroke="#031620"/>
<line x1="208.594" y1="24.25" x2="638.594" y2="24.25" stroke="#031620"/>
<line x1="193.594" y1="40.25" x2="653.594" y2="40.25" stroke="#031620"/>
<line x1="35.5938" y1="56.25" x2="661.594" y2="56.25" stroke="#031620"/>
<line x1="19.5938" y1="72.25" x2="661.594" y2="72.25" stroke="#031620"/>
</g>
<defs>
<clipPath id="clip0_1737_1928">
<rect width="654" height="436" fill="white" transform="translate(8.59375 8.75)"/>
</clipPath>
</defs>
</svg>
